<svg xmlns="http://www.w3.org/2000/svg" width="1200" height="760" viewBox="0 0 1200 760" role="img" aria-label="Texarkana Concrete Pros guide 3">
  <defs><linearGradient id="g" x1="0" y1="0" x2="1" y2="1"><stop stop-color="hsl(154,34%,28%)"/><stop offset="1" stop-color="hsl(179,25%,50%)"/></linearGradient><linearGradient id="p" x1="0" y1="0" x2="0" y2="1"><stop stop-color="#fbf7ef"/><stop offset="1" stop-color="#e7ded0"/></linearGradient></defs>
  <rect width="1200" height="760" fill="url(#p)"/><circle cx="1010" cy="120" r="170" fill="hsl(54,64%,62%)" opacity=".28"/><circle cx="170" cy="650" r="220" fill="hsl(154,32%,42%)" opacity=".18"/>
  <rect x="135" y="120" width="930" height="520" rx="8" fill="#fff" stroke="#d8dfdb"/><rect x="165" y="150" width="870" height="300" rx="8" fill="url(#g)"/><path d="M320 250h520M320 350h420M320 450h500M270 250h20M270 350h20M270 450h20" fill="none" stroke="#fff" stroke-width="34" stroke-linecap="round" stroke-linejoin="round" opacity=".92"/>
  <rect x="185" y="485" width="500" height="28" rx="14" fill="#25483f" opacity=".9"/><rect x="185" y="535" width="700" height="20" rx="10" fill="#607069" opacity=".35"/><rect x="185" y="575" width="610" height="20" rx="10" fill="#607069" opacity=".24"/>
  <text x="185" y="102" fill="#17231f" font-family="Arial, sans-serif" font-size="36" font-weight="700">Texarkana Concrete Pros guide 3</text>
</svg>